<svg xmlns="http://www.w3.org/2000/svg" viewBox="0 0 640 640" fill="none">
  <g opacity="0.34" stroke="#8eb9c7" stroke-width="1.25" stroke-linecap="round">
    <path d="M-20 96c90-33 133 28 219 12s131-58 205-41 135 72 236 51"/>
    <path d="M-40 158c82-24 128 17 208 10 95-8 122-54 202-47 95 9 138 60 270 37"/>
    <path d="M-18 236c104-37 162 32 260 8 85-21 116-69 205-55 103 17 127 78 225 62"/>
    <path d="M-22 310c93-26 149 10 223 6 92-5 126-49 212-42 96 8 135 45 247 31"/>
    <path d="M-26 378c111-40 157 25 247 11 82-13 121-58 206-47 105 14 146 69 238 49"/>
    <path d="M-8 454c97-27 156 17 239 12 97-6 121-56 208-50 100 7 145 57 228 44"/>
    <path d="M-34 530c88-22 139 14 221 8 99-7 130-52 221-44 89 9 136 53 242 32"/>
  </g>
  <g opacity="0.18" stroke="#b9d7de" stroke-width="1">
    <path d="M120 84c16 8 27 22 29 38-1 20-16 38-38 45-24 8-52-3-63-24-10-22 0-50 24-64 13-7 32-5 48 5z"/>
    <path d="M121 98c11 6 18 14 19 25-1 13-11 24-26 29-17 5-36-2-44-17-8-15 0-35 17-45 10-5 23-4 34 3z"/>
    <path d="M521 145c17 7 29 20 31 35-1 20-16 37-37 44-25 8-54-2-65-25-10-22 1-49 26-62 13-7 31-5 45 8z"/>
    <path d="M519 158c12 5 18 14 20 23-1 13-10 25-24 29-18 6-37-1-45-16-7-15 1-33 18-42 9-5 21-3 31 6z"/>
    <path d="M204 478c18 8 29 21 31 38-1 19-17 37-39 43-24 8-52-2-62-24-11-22 0-50 23-63 14-7 32-6 47 6z"/>
    <path d="M205 492c11 6 18 14 20 24-2 13-12 24-27 29-17 4-35-3-43-18-8-16 0-35 16-44 10-5 23-4 34 3z"/>
  </g>
  <g opacity="0.4" fill="#d8efe8">
    <circle cx="86" cy="204" r="2.6"/>
    <circle cx="241" cy="122" r="1.9"/>
    <circle cx="328" cy="286" r="2.2"/>
    <circle cx="438" cy="88" r="2"/>
    <circle cx="522" cy="250" r="2.5"/>
    <circle cx="592" cy="404" r="1.8"/>
    <circle cx="174" cy="360" r="2.1"/>
    <circle cx="312" cy="522" r="2.4"/>
    <circle cx="454" cy="534" r="1.9"/>
    <circle cx="90" cy="542" r="2.3"/>
  </g>
</svg>
